<svg width="178" height="81" viewBox="0 0 178 81" fill="none" xmlns="http://www.w3.org/2000/svg">
<path fill-rule="evenodd" clip-rule="evenodd" d="M11.7925 20.9884L117.035 20.9884L117.035 1.96285C117.035 0.865526 117.909 -2.61836e-06 118.99 -2.57107e-06C119.462 -2.55046e-06 119.887 0.161946 120.227 0.432415L176.948 38.5998C177.837 39.2026 178.084 40.423 177.473 41.3271C177.342 41.5435 177.133 41.706 176.932 41.8682L120.088 80.1436C119.191 80.7463 117.97 80.4989 117.367 79.6025C117.143 79.2702 117.035 78.8914 117.035 78.5127L117.035 59.5649L11.7925 59.5649C8.55465 59.5649 5.60229 58.2276 3.46946 56.1025L3.46191 56.0716C1.32135 53.9465 -0.000444734 51.0024 -0.000444592 47.7568L-0.000443937 32.7648C-0.000443795 29.5192 1.32135 26.5751 3.46191 24.4191C5.59474 22.294 8.5392 20.9884 11.7925 20.9884ZM118.99 24.9142L11.7925 24.9142C9.6288 24.9142 7.66547 25.7874 6.24357 27.2015C4.81395 28.6234 3.93281 30.6088 3.93281 32.7648L3.93281 47.7568C3.93281 49.936 4.81395 51.899 6.24357 53.3209C7.66546 54.7659 9.6288 55.6392 11.7925 55.6392L118.99 55.6392C120.08 55.6392 120.961 56.5124 120.961 57.602L120.961 74.827L172.342 40.2382L120.961 5.64104L120.961 22.9204C120.961 24.0177 120.08 24.9142 118.99 24.9142Z" fill="#3CA6CD"/>
</svg>
