<svg width="18" height="18" viewBox="0 0 18 18" fill="none" xmlns="http://www.w3.org/2000/svg">
<path fill-rule="evenodd" clip-rule="evenodd" d="M17.1543 0.240401C16.8337 -0.0801331 16.3141 -0.0801339 15.9935 0.2404L8.71795 7.51598L1.44237 0.2404C1.12183 -0.0801339 0.602146 -0.0801331 0.281612 0.240401C-0.0389216 0.560935 -0.0389219 1.08062 0.281612 1.40116L7.55719 8.67674L0.2404 15.9935C-0.0801336 16.3141 -0.0801333 16.8337 0.240401 17.1543C0.560934 17.4748 1.08062 17.4748 1.40116 17.1543L8.71795 9.83749L16.0347 17.1543C16.3553 17.4748 16.875 17.4748 17.1955 17.1543C17.516 16.8337 17.516 16.3141 17.1955 15.9935L9.8787 8.67674L17.1543 1.40116C17.4748 1.08062 17.4748 0.560935 17.1543 0.240401Z" fill="#3CA6CD"/>
</svg>
