<svg width="22" height="22" viewBox="0 0 22 22" fill="none" xmlns="http://www.w3.org/2000/svg">
<path d="M21.0049 2.75006C21.0049 1.53131 19.9736 0.500061 18.7549 0.500061H2.25488C0.989258 0.500061 0.00488281 1.53131 0.00488281 2.75006V19.2501C0.00488281 20.5157 0.989258 21.5001 2.25488 21.5001H11.4424V13.2032H8.62988V10.0626H11.4424V7.71881C11.4424 5.00006 13.1299 3.50006 15.5205 3.50006C16.6924 3.50006 17.6768 3.59381 18.0049 3.64069V6.50006H16.3174C15.0049 6.50006 14.7236 7.10944 14.7236 8.00006V10.0626H18.0049L17.583 13.2032H14.7236V21.5001H18.7549C19.9736 21.5001 21.0049 20.5157 21.0049 19.2501V2.75006Z" fill="white"/>
</svg>
