<svg width="22" height="22" viewBox="0 0 22 22" fill="none" xmlns="http://www.w3.org/2000/svg">
<path d="M11.5049 5.60944C8.50488 5.60944 6.11426 8.04694 6.11426 11.0001C6.11426 14.0001 8.50488 16.3907 11.5049 16.3907C14.458 16.3907 16.8955 14.0001 16.8955 11.0001C16.8955 8.04694 14.458 5.60944 11.5049 5.60944ZM11.5049 14.5157C9.58301 14.5157 7.98926 12.9688 7.98926 11.0001C7.98926 9.07819 9.53613 7.53131 11.5049 7.53131C13.4268 7.53131 14.9736 9.07819 14.9736 11.0001C14.9736 12.9688 13.4268 14.5157 11.5049 14.5157ZM18.3486 5.42194C18.3486 4.71881 17.7861 4.15631 17.083 4.15631C16.3799 4.15631 15.8174 4.71881 15.8174 5.42194C15.8174 6.12506 16.3799 6.68756 17.083 6.68756C17.7861 6.68756 18.3486 6.12506 18.3486 5.42194ZM21.9111 6.68756C21.8174 5.00006 21.4424 3.50006 20.2236 2.28131C19.0049 1.06256 17.5049 0.687561 15.8174 0.593811C14.083 0.500061 8.87988 0.500061 7.14551 0.593811C5.45801 0.687561 4.00488 1.06256 2.73926 2.28131C1.52051 3.50006 1.14551 5.00006 1.05176 6.68756C0.958008 8.42194 0.958008 13.6251 1.05176 15.3594C1.14551 17.0469 1.52051 18.5001 2.73926 19.7657C4.00488 20.9844 5.45801 21.3594 7.14551 21.4532C8.87988 21.5469 14.083 21.5469 15.8174 21.4532C17.5049 21.3594 19.0049 20.9844 20.2236 19.7657C21.4424 18.5001 21.8174 17.0469 21.9111 15.3594C22.0049 13.6251 22.0049 8.42194 21.9111 6.68756ZM19.6611 17.1876C19.333 18.1251 18.583 18.8282 17.6924 19.2032C16.2861 19.7657 13.0049 19.6251 11.5049 19.6251C9.95801 19.6251 6.67676 19.7657 5.31738 19.2032C4.37988 18.8282 3.67676 18.1251 3.30176 17.1876C2.73926 15.8282 2.87988 12.5469 2.87988 11.0001C2.87988 9.50006 2.73926 6.21881 3.30176 4.81256C3.67676 3.92194 4.37988 3.21881 5.31738 2.84381C6.67676 2.28131 9.95801 2.42194 11.5049 2.42194C13.0049 2.42194 16.2861 2.28131 17.6924 2.84381C18.583 3.17194 19.2861 3.92194 19.6611 4.81256C20.2236 6.21881 20.083 9.50006 20.083 11.0001C20.083 12.5469 20.2236 15.8282 19.6611 17.1876Z" fill="white"/>
</svg>
