<svg width="73" height="60" viewBox="0 0 73 60" fill="none" xmlns="http://www.w3.org/2000/svg">
<path d="M0.672184 25.4162C2.59271 25.1761 4.48923 24.96 6.40975 24.7199C7.87416 24.5519 9.33856 24.3358 10.827 24.1917C11.2831 24.1437 11.3791 23.9757 11.3791 23.5435C11.3311 20.3505 11.2591 17.1814 11.2351 13.9883C11.2111 9.90696 11.1871 5.80158 11.1631 1.72022C11.1631 1.50414 11.139 1.26406 11.1871 1.04799C11.3071 0.183701 12.1233 -0.200427 12.8675 0.279733C13.6117 0.735886 14.3319 1.26406 15.0521 1.76823C20.8137 5.80158 26.5513 9.85894 32.3128 13.9163C33.033 14.4205 33.033 14.4205 33.7773 13.8923C40.019 9.47481 46.2607 5.03333 52.5024 0.615846C52.7424 0.44779 53.0065 0.279733 53.2706 0.159693C53.7507 -0.0563792 54.2308 0.111677 54.4949 0.543822C54.783 0.975967 54.735 1.40811 54.3749 1.76823C54.1588 1.9843 53.9188 2.15236 53.6787 2.34442C46.9088 7.14603 40.163 11.9236 33.4172 16.7252C33.1051 16.9413 32.913 16.8933 32.6489 16.7012C26.4312 12.3318 20.2135 7.96231 14.0198 3.61685C13.9478 3.56884 13.8998 3.52082 13.8278 3.49681C13.7078 3.44879 13.5637 3.40078 13.4197 3.35276C13.3717 3.49681 13.3236 3.61685 13.3236 3.7609C13.3236 5.17737 13.3477 6.56984 13.3717 7.98631C13.4197 13.6522 13.4437 19.3181 13.4917 24.984C13.4917 25.3441 13.4917 25.5842 13.0116 25.5602C9.1225 25.5362 5.25744 25.5602 1.36837 25.5602C1.15232 25.5602 0.936256 25.5602 0.720197 25.5602C0.672184 25.4882 0.672184 25.4402 0.672184 25.4162ZM2.61672 39.0767V33.6029L5.04138 37.3241H5.08939L7.53806 33.5789V39.0767H10.1788V29.4975H7.39402L5.1134 33.1948L2.83278 29.4975H0V39.0767H2.61672ZM12.9155 38.1644C13.6837 38.8847 14.788 39.2688 16.1804 39.2688C16.8766 39.2688 17.4768 39.1728 18.0289 39.0047C18.5811 38.8366 19.0372 38.5726 19.4453 38.2124C19.8534 37.8523 20.1415 37.3962 20.3576 36.82C20.5736 36.2438 20.6697 35.5956 20.6697 34.8273V29.5215H17.9809V34.9233C17.9809 35.5716 17.8369 36.0757 17.5248 36.4118C17.2127 36.7479 16.7806 36.916 16.2284 36.916C15.6763 36.916 15.2442 36.7479 14.9321 36.4118C14.62 36.0757 14.476 35.5716 14.476 34.8753V29.5455H11.7632V34.9233C11.7632 36.3398 12.1473 37.4202 12.9155 38.1644ZM24.8948 39.0767V36.1718H26.0471L27.9677 39.0767H31.0405L28.7599 35.7156C29.384 35.4515 29.8642 35.0914 30.2003 34.5872C30.5364 34.0831 30.7284 33.5069 30.7284 32.8106C30.7284 31.8503 30.4403 31.1061 29.8882 30.5299C29.192 29.8336 28.1597 29.4975 26.7673 29.4975H22.2541V39.0767H24.8948ZM24.8948 31.8263H26.6233C27.0794 31.8263 27.4395 31.9223 27.6796 32.1144C27.9196 32.3065 28.0637 32.5946 28.0637 32.9547C28.0637 33.3148 27.9437 33.6029 27.6796 33.795C27.4395 34.011 27.0794 34.1071 26.6233 34.1071H24.8708V31.8263H24.8948ZM34.1133 39.0767L34.7855 37.3722H38.4825L39.1787 39.0767H42.0355L37.9544 29.4255H35.3857L31.3046 39.0767H34.1133ZM36.658 32.5705L37.7383 35.3075H35.5777L36.658 32.5705ZM45.3004 31.8263V39.0767H47.9411V31.8263H50.8219V29.4975H42.4196V31.8263H45.3004ZM52.3343 36.796C52.7664 37.5642 53.3906 38.1644 54.1828 38.5966C54.9751 39.0287 55.8393 39.2688 56.8236 39.2688C57.5438 39.2688 58.2399 39.1488 58.8641 38.8847C59.5123 38.6206 60.0404 38.2605 60.4966 37.8283C60.9527 37.3962 61.3128 36.844 61.5769 36.2438C61.8409 35.6196 61.985 34.9954 61.985 34.2991C61.985 33.6029 61.8649 32.9547 61.6009 32.3545C61.3368 31.7543 60.9767 31.2021 60.5446 30.7699C60.0885 30.3378 59.5603 29.9777 58.9121 29.7136C58.264 29.4495 57.5918 29.3295 56.8716 29.3295C56.1514 29.3295 55.4552 29.4495 54.831 29.7136C54.2068 29.9777 53.6307 30.3378 53.1986 30.7699C52.7424 31.2261 52.3823 31.7543 52.1183 32.3545C51.8542 32.9787 51.7102 33.6029 51.7102 34.2991C51.6621 35.2114 51.8782 36.0277 52.3343 36.796ZM55.0711 32.4505C55.5272 31.9463 56.1034 31.7063 56.8236 31.7063C57.5438 31.7063 58.1199 31.9703 58.6 32.4745C59.0562 32.9787 59.2962 33.6029 59.2962 34.2991C59.2962 35.0194 59.0802 35.6436 58.6241 36.1237C58.1679 36.6279 57.5918 36.868 56.8716 36.868C56.1514 36.868 55.5752 36.6039 55.1191 36.0997C54.663 35.5956 54.4229 34.9714 54.4229 34.2751C54.3749 33.5549 54.615 32.9547 55.0711 32.4505ZM66.4742 39.1488H68.9469L72.8359 29.4975H69.9312L67.7466 35.5716L65.586 29.4975H62.6091L66.4742 39.1488Z" fill="url(#paint0_linear)"/>
<path d="M71.7081 42.8462C70.9639 42.9183 70.1956 43.0143 69.4514 43.0863C66.4026 43.4224 63.3538 43.7585 60.2809 44.0947C59.8728 44.1427 59.5847 44.2867 59.3927 44.6708C57.3281 49.2084 53.8472 52.3774 49.67 54.8983C45.925 57.155 41.8679 58.5955 37.6427 59.6759C36.6345 59.94 35.7222 59.94 34.7379 59.6759C29.8166 58.4275 25.1593 56.5788 20.9342 53.6979C17.5492 51.3931 14.8605 48.5121 13.108 44.7669C12.892 44.2867 12.5559 44.0947 12.0277 44.0226C8.59479 43.6625 5.16186 43.2784 1.75292 42.8942C1.6569 42.8942 1.53686 42.8462 1.46484 42.7262C1.72892 42.7262 2.01699 42.7262 2.28107 42.7262C6.14612 42.7262 10.0112 42.7502 13.8762 42.7262C14.3324 42.7262 14.5724 42.8702 14.7645 43.3024C16.0368 46.4234 18.1494 48.8963 20.7661 50.961C24.8472 54.178 29.5525 56.0507 34.4739 57.4911C36.2023 57.9953 37.6908 57.5632 39.2272 57.107C43.7884 55.7626 48.0856 53.8419 51.8306 50.8649C54.3753 48.8482 56.3919 46.4234 57.6402 43.3984C57.8323 42.9183 58.1203 42.7262 58.6485 42.7502C62.6816 42.7742 66.7147 42.7502 70.7478 42.7502C71.0599 42.7502 71.372 42.7502 71.6841 42.7502C71.6841 42.7742 71.7081 42.7982 71.7081 42.8462ZM36.0823 16.9656C37.1146 16.9656 38.1469 16.9896 39.1552 16.9416C39.3952 16.9416 39.6593 16.7975 39.8754 16.6535C42.5881 14.7568 45.2768 12.8602 47.9656 10.9636C51.5425 8.44271 55.1195 5.92186 58.6725 3.42503C58.7685 3.353 58.9366 3.353 59.0806 3.30499C59.1046 3.42503 59.1526 3.54507 59.1526 3.66511C59.1046 7.05024 59.0566 10.4594 59.0326 13.8445C59.0086 17.5658 59.0086 21.311 58.9606 25.0323C58.9606 25.4404 59.1526 25.4644 59.4647 25.4644C63.5218 25.4644 67.5789 25.4644 71.612 25.4644C71.8041 25.4644 72.0201 25.4404 72.2122 25.4404C68.7072 24.9362 65.2263 24.4801 61.7213 24.096C61.1932 24.0479 61.0251 23.8799 61.0491 23.3277C61.0972 21.143 61.1452 18.9822 61.1452 16.7975C61.1932 11.7798 61.2172 6.73814 61.2652 1.72046C61.2652 1.12026 61.2892 0.496046 60.665 0.135925C59.9929 -0.224195 59.5127 0.20795 59.0326 0.544062C51.8306 5.60976 44.6287 10.6995 37.4267 15.7652C36.9466 16.1013 36.4664 16.4614 35.9863 16.7975C36.0583 16.8935 36.0583 16.9175 36.0823 16.9656Z" fill="url(#paint1_linear)"/>
<path d="M22.4704 46.7115V48.1519H21.5342V43.9985H22.9986C24.0549 43.9985 24.583 44.4307 24.583 45.319C24.583 45.7271 24.439 46.0872 24.1269 46.3273C23.8148 46.5674 23.4307 46.7115 22.9266 46.7115H22.4704ZM22.4704 44.6948V45.9912H22.8305C23.3347 45.9912 23.5747 45.7751 23.5747 45.343C23.5747 44.9108 23.3347 44.6948 22.8305 44.6948H22.4704Z" fill="black"/>
<path d="M28.8571 48.1519H27.8248L27.5367 47.2156H26.0483L25.7602 48.1519H24.752L26.2644 43.9985H27.3687L28.8571 48.1519ZM27.3207 46.4954L26.8645 45.1029C26.8405 45.0069 26.8165 44.8628 26.7925 44.7188H26.7685C26.7685 44.8388 26.7445 44.9589 26.6965 45.0789L26.2404 46.4954H27.3207Z" fill="black"/>
<path d="M32.8659 48.152H31.7856L31.1374 47.0716C31.0894 46.9996 31.0414 46.9276 30.9934 46.8556C30.9454 46.7836 30.8973 46.7355 30.8493 46.6875C30.8013 46.6395 30.7533 46.6155 30.7053 46.5915C30.6573 46.5675 30.6093 46.5435 30.5372 46.5435H30.2732V48.128H29.3369V43.9746H30.8253C31.8336 43.9746 32.3377 44.3587 32.3377 45.103C32.3377 45.247 32.3137 45.3911 32.2657 45.5111C32.2177 45.6312 32.1697 45.7512 32.0737 45.8472C32.0016 45.9433 31.9056 46.0393 31.7856 46.1113C31.6655 46.1834 31.5455 46.2314 31.4015 46.2794C31.4735 46.3034 31.5215 46.3274 31.5695 46.3754C31.6175 46.4234 31.6896 46.4714 31.7376 46.5195C31.7856 46.5675 31.8336 46.6395 31.8816 46.7115C31.9296 46.7836 31.9776 46.8556 32.0256 46.9036L32.8659 48.152ZM30.2972 44.6708V45.8232H30.7053C30.8973 45.8232 31.0654 45.7752 31.1854 45.6552C31.3055 45.5351 31.3775 45.3911 31.3775 45.223C31.3775 44.8629 31.1614 44.6708 30.7293 44.6708H30.2972Z" fill="black"/>
<path d="M36.1776 44.7429H35.0012V48.152H34.065V44.7429H32.8887V43.9746H36.2016V44.7429H36.1776Z" fill="black"/>
<path d="M40.4759 48.1519H39.5396L37.8352 45.5351C37.7392 45.391 37.6671 45.271 37.6191 45.1989C37.6431 45.343 37.6431 45.5591 37.6431 45.8712V48.1519H36.7549V43.9985H37.7632L39.4196 46.5434C39.4916 46.6634 39.5636 46.7595 39.6357 46.8795C39.6117 46.7835 39.6117 46.5914 39.6117 46.3033V43.9985H40.4999V48.1519H40.4759Z" fill="black"/>
<path d="M43.9322 48.1519H41.4355V43.9985H43.8362V44.7668H42.3718V45.7031H43.7402V46.4714H42.3718V47.4317H43.9322V48.1519Z" fill="black"/>
<path d="M48.0856 48.152H47.0053L46.3571 47.0716C46.3091 46.9996 46.2611 46.9276 46.2131 46.8556C46.1651 46.7836 46.1171 46.7355 46.0691 46.6875C46.021 46.6395 45.973 46.6155 45.925 46.5915C45.877 46.5675 45.829 46.5435 45.757 46.5435H45.4929V48.128H44.5566V43.9746H46.045C47.0533 43.9746 47.5575 44.3587 47.5575 45.103C47.5575 45.247 47.5335 45.3911 47.4854 45.5111C47.4374 45.6312 47.3894 45.7512 47.2934 45.8472C47.2214 45.9433 47.1253 46.0393 47.0053 46.1113C46.8853 46.1834 46.7652 46.2314 46.6212 46.2794C46.6932 46.3034 46.7412 46.3274 46.8133 46.3754C46.8853 46.4234 46.9333 46.4714 46.9813 46.5195C47.0293 46.5675 47.0773 46.6395 47.1253 46.7115C47.1734 46.7836 47.2214 46.8556 47.2694 46.9036L48.0856 48.152ZM45.5409 44.6708V45.8232H45.949C46.1411 45.8232 46.3091 45.7752 46.4292 45.6552C46.5492 45.5351 46.6212 45.3911 46.6212 45.223C46.6212 44.8629 46.4051 44.6708 45.973 44.6708H45.5409Z" fill="black"/>
<path d="M48.2769 47.984V47.0477C48.445 47.1918 48.637 47.2878 48.8291 47.3598C49.0211 47.4319 49.2372 47.4559 49.4293 47.4559C49.5493 47.4559 49.6453 47.4559 49.7413 47.4319C49.8374 47.4078 49.9094 47.3838 49.9574 47.3358C50.0054 47.2878 50.0534 47.2638 50.0774 47.1918C50.1014 47.1438 50.1254 47.0957 50.1254 47.0237C50.1254 46.9517 50.1014 46.8797 50.0534 46.8076C50.0054 46.7356 49.9334 46.6876 49.8614 46.6396C49.7894 46.5916 49.6933 46.5436 49.5733 46.4715C49.4533 46.4235 49.3332 46.3755 49.2132 46.3275C48.8771 46.1834 48.637 46.0154 48.493 45.8233C48.3249 45.6312 48.2529 45.3912 48.2529 45.1031C48.2529 44.887 48.3009 44.6949 48.373 44.5509C48.469 44.4068 48.589 44.2628 48.7331 44.1668C48.8771 44.0707 49.0451 43.9987 49.2612 43.9507C49.4533 43.9027 49.6693 43.8787 49.8854 43.8787C50.1014 43.8787 50.2935 43.9027 50.4615 43.9267C50.6296 43.9507 50.7736 43.9987 50.9177 44.0467V44.911C50.8456 44.863 50.7736 44.815 50.7016 44.791C50.6296 44.743 50.5336 44.7189 50.4375 44.6949C50.3415 44.6709 50.2695 44.6469 50.1735 44.6469C50.0774 44.6469 50.0054 44.6229 49.9334 44.6229C49.8374 44.6229 49.7413 44.6229 49.6453 44.6469C49.5493 44.6709 49.4773 44.6949 49.4293 44.743C49.3572 44.791 49.3332 44.815 49.2852 44.863C49.2612 44.911 49.2372 44.983 49.2372 45.031C49.2372 45.1031 49.2612 45.1511 49.2852 45.2231C49.3332 45.2711 49.3812 45.3191 49.4533 45.3912C49.5253 45.4392 49.5973 45.4872 49.6933 45.5352C49.7893 45.5832 49.9094 45.6313 50.0294 45.6793C50.1975 45.7513 50.3415 45.8233 50.4855 45.8953C50.6296 45.9674 50.7256 46.0634 50.8216 46.1594C50.9177 46.2555 50.9897 46.3755 51.0377 46.4955C51.0857 46.6156 51.1097 46.7596 51.1097 46.9277C51.1097 47.1678 51.0617 47.3598 50.9657 47.5039C50.8696 47.6719 50.7496 47.792 50.6056 47.888C50.4615 47.984 50.2695 48.0561 50.0774 48.1041C49.8854 48.1521 49.6693 48.1761 49.4533 48.1761C49.2132 48.1761 48.9971 48.1521 48.8051 48.1281C48.613 48.1041 48.445 48.0561 48.2769 47.984Z" fill="black"/>
<defs>
<linearGradient id="paint0_linear" x1="14.0584" y1="45.9104" x2="60.8039" y2="-0.83222" gradientUnits="userSpaceOnUse">
<stop stop-color="#4F6DAF"/>
<stop offset="0.1006" stop-color="#5174B5"/>
<stop offset="0.2605" stop-color="#5480C0"/>
<stop offset="0.4268" stop-color="#568BC9"/>
<stop offset="0.6" stop-color="#5794D1"/>
<stop offset="0.7846" stop-color="#5899D6"/>
<stop offset="1" stop-color="#589BD7"/>
</linearGradient>
<linearGradient id="paint1_linear" x1="19.0552" y1="60.316" x2="69.9808" y2="9.39355" gradientUnits="userSpaceOnUse">
<stop/>
<stop offset="0.2064" stop-color="#090908"/>
<stop offset="0.3413" stop-color="#161615"/>
<stop offset="0.4557" stop-color="#252524"/>
<stop offset="0.5588" stop-color="#373839"/>
<stop offset="0.6542" stop-color="#41464D"/>
<stop offset="0.744" stop-color="#485563"/>
<stop offset="0.8293" stop-color="#516880"/>
<stop offset="0.9111" stop-color="#5980A6"/>
<stop offset="0.9875" stop-color="#5996CE"/>
<stop offset="1" stop-color="#589BD7"/>
</linearGradient>
</defs>
</svg>
