<svg width="190" height="156" viewBox="0 0 190 156" fill="none" xmlns="http://www.w3.org/2000/svg">
<path d="M1.74645 66.0353C6.73631 65.4115 11.6638 64.8501 16.6536 64.2264C20.4584 63.7897 24.2632 63.2283 28.1303 62.8541C29.3154 62.7293 29.5649 62.2927 29.5649 61.1699C29.4401 52.8738 29.253 44.64 29.1907 36.3438C29.1283 25.7398 29.0659 15.0733 29.0035 4.46919C29.0035 3.9078 28.9412 3.28403 29.0659 2.72264C29.3778 0.477066 31.4985 -0.520966 33.432 0.726574C35.3656 1.91174 37.2368 3.28403 39.108 4.59395C54.0776 15.0733 68.9848 25.615 83.9543 36.1567C85.8255 37.4666 85.8255 37.4666 87.7591 36.0943C103.976 24.617 120.193 13.0772 136.41 1.59985C137.034 1.16321 137.72 0.726574 138.406 0.414689C139.654 -0.146704 140.901 0.289935 141.587 1.41272C142.336 2.53551 142.211 3.65829 141.275 4.59395C140.714 5.15534 140.09 5.59198 139.466 6.091C121.877 18.5664 104.35 30.9794 86.8235 43.4548C86.0126 44.0162 85.5136 43.8915 84.8275 43.3924C68.6729 32.0398 52.5182 20.6872 36.4259 9.39698C36.2388 9.27222 36.1141 9.14747 35.927 9.08509C35.6151 8.96034 35.2409 8.83558 34.8666 8.71083C34.7419 9.08509 34.6171 9.39698 34.6171 9.77124C34.6171 13.4515 34.6795 17.0693 34.7419 20.7496C34.8666 35.4706 34.929 50.1915 35.0537 64.9125C35.0537 65.8482 35.0537 66.4719 33.8063 66.4096C23.7018 66.3472 13.6597 66.4096 3.55527 66.4096C2.99391 66.4096 2.43255 66.4096 1.8712 66.4096C1.74645 66.2224 1.74645 66.0977 1.74645 66.0353ZM6.79868 101.528V87.3059L13.0984 96.9743H13.2231L19.5852 87.2435V101.528H26.4462V76.6394H19.2109L13.2855 86.2455L7.36004 76.6394H0V101.528H6.79868ZM33.5568 99.1575C35.5527 101.029 38.4219 102.027 42.0395 102.027C43.8484 102.027 45.4077 101.777 46.8423 101.341C48.2769 100.904 49.4619 100.218 50.5223 99.2822C51.5826 98.3466 52.3311 97.1614 52.8925 95.6644C53.4538 94.1673 53.7033 92.4832 53.7033 90.4871V76.7018H46.7175V90.7366C46.7175 92.4208 46.3433 93.7307 45.5324 94.604C44.7216 95.4772 43.5989 95.9139 42.1643 95.9139C40.7297 95.9139 39.607 95.4772 38.7961 94.604C37.9853 93.7307 37.611 92.4208 37.611 90.6118V76.7642H30.5629V90.7366C30.5629 94.4168 31.5608 97.2238 33.5568 99.1575ZM64.681 101.528V93.9802H67.6749L72.6648 101.528H80.6485L74.7231 92.795C76.3448 92.1089 77.5922 91.1732 78.4655 89.8633C79.3387 88.5534 79.8377 87.0564 79.8377 85.2474C79.8377 82.7523 79.0892 80.8186 77.6546 79.3216C75.8458 77.5127 73.1638 76.6394 69.5461 76.6394H57.82V101.528H64.681ZM64.681 82.69H69.1719C70.357 82.69 71.2926 82.9395 71.9163 83.4385C72.54 83.9375 72.9143 84.686 72.9143 85.6217C72.9143 86.5573 72.6024 87.3059 71.9163 87.8049C71.2926 88.3663 70.357 88.6158 69.1719 88.6158H64.6186V82.69H64.681ZM88.6323 101.528L90.3788 97.0991H99.9842L101.793 101.528H109.215L98.612 76.4523H91.9381L81.3346 101.528H88.6323ZM95.2439 84.6236L98.0507 91.7346H92.4371L95.2439 84.6236ZM117.698 82.69V101.528H124.559V82.69H132.044V76.6394H110.213V82.69H117.698ZM135.974 95.602C137.096 97.5981 138.718 99.1575 140.776 100.28C142.835 101.403 145.08 102.027 147.637 102.027C149.509 102.027 151.317 101.715 152.939 101.029C154.623 100.343 155.995 99.407 157.18 98.2842C158.366 97.1614 159.301 95.7268 159.987 94.1673C160.673 92.5455 161.048 90.9237 161.048 89.1148C161.048 87.3059 160.736 85.6217 160.05 84.0623C159.364 82.5028 158.428 81.0682 157.305 79.9454C156.12 78.8226 154.748 77.8869 153.064 77.2008C151.38 76.5146 149.633 76.2028 147.762 76.2028C145.891 76.2028 144.082 76.5146 142.46 77.2008C140.839 77.8869 139.342 78.8226 138.219 79.9454C137.034 81.1305 136.098 82.5028 135.412 84.0623C134.726 85.6841 134.352 87.3059 134.352 89.1148C134.227 91.4851 134.788 93.6059 135.974 95.602ZM143.084 84.3118C144.269 83.0018 145.766 82.3781 147.637 82.3781C149.509 82.3781 151.006 83.0642 152.253 84.3741C153.438 85.6841 154.062 87.3059 154.062 89.1148C154.062 90.9861 153.5 92.6079 152.315 93.8554C151.13 95.1654 149.633 95.7891 147.762 95.7891C145.891 95.7891 144.394 95.103 143.209 93.7931C142.024 92.4831 141.4 90.8614 141.4 89.0524C141.275 87.1811 141.899 85.6217 143.084 84.3118ZM172.711 101.715H179.136L189.24 76.6394H181.693L176.017 92.4208L170.404 76.6394H162.669L172.711 101.715Z" fill="white"/>
<path d="M186.31 111.322C184.376 111.509 182.38 111.759 180.447 111.946C172.525 112.819 164.604 113.692 156.62 114.565C155.56 114.69 154.811 115.064 154.312 116.063C148.948 127.852 139.904 136.086 129.051 142.635C119.321 148.499 108.78 152.241 97.8021 155.048C95.1824 155.734 92.8122 155.734 90.2549 155.048C77.4684 151.805 65.368 147.002 54.3903 139.516C45.5957 133.528 38.6099 126.043 34.0567 116.312C33.4953 115.064 32.6221 114.565 31.2499 114.378C22.3305 113.443 13.4111 112.445 4.55414 111.447C4.30465 111.447 3.99278 111.322 3.80566 111.01C4.49177 111.01 5.24025 111.01 5.92635 111.01C15.9684 111.01 26.0105 111.072 36.0526 111.01C37.2377 111.01 37.8614 111.384 38.3604 112.507C41.6662 120.616 47.155 127.041 53.9537 132.405C64.5572 140.764 76.7823 145.629 89.5688 149.372C94.0597 150.682 97.9268 149.559 101.919 148.374C113.77 144.881 124.934 139.891 134.665 132.156C141.276 126.916 146.516 120.616 149.759 112.757C150.258 111.509 151.006 111.01 152.379 111.072C162.857 111.135 173.336 111.072 183.815 111.072C184.626 111.072 185.436 111.072 186.247 111.072C186.247 111.135 186.31 111.197 186.31 111.322ZM93.7478 44.0794C96.4298 44.0794 99.1119 44.1418 101.732 44.0171C102.355 44.0171 103.041 43.6428 103.603 43.2685C110.651 38.3408 117.637 33.413 124.623 28.4852C133.916 21.9356 143.21 15.386 152.441 8.89881C152.69 8.71168 153.127 8.71168 153.501 8.58692C153.564 8.89881 153.688 9.21069 153.688 9.52258C153.564 18.3177 153.439 27.1753 153.377 35.9704C153.314 45.6389 153.314 55.3697 153.189 65.0381C153.189 66.0985 153.688 66.1609 154.499 66.1609C165.04 66.1609 175.581 66.1609 186.06 66.1609C186.559 66.1609 187.12 66.0985 187.619 66.0985C178.513 64.7886 169.469 63.6035 160.362 62.6054C158.99 62.4807 158.554 62.044 158.616 60.6094C158.741 54.933 158.865 49.3191 158.865 43.6428C158.99 30.606 159.053 17.5068 159.177 4.47004C159.177 2.91062 159.24 1.28881 157.618 0.353158C155.872 -0.582498 154.624 0.540289 153.377 1.41357C134.665 14.5751 115.953 27.799 97.2407 40.9606C95.9932 41.8339 94.7458 42.7695 93.4983 43.6428C93.6854 43.8923 93.6854 43.9547 93.7478 44.0794Z" fill="white"/>
<path d="M58.3827 121.365V125.107H55.9502V114.316H59.755C62.4994 114.316 63.8716 115.439 63.8716 117.747C63.8716 118.807 63.4973 119.743 62.6865 120.366C61.8756 120.99 60.8777 121.365 59.5678 121.365H58.3827ZM58.3827 116.125V119.493H59.3183C60.6282 119.493 61.2519 118.932 61.2519 117.809C61.2519 116.686 60.6282 116.125 59.3183 116.125H58.3827Z" fill="white"/>
<path d="M74.9764 125.107H72.2943L71.5458 122.674H67.6787L66.9302 125.107H64.3105L68.2401 114.316H71.1092L74.9764 125.107ZM70.9845 120.803L69.7994 117.185C69.737 116.936 69.6746 116.561 69.6123 116.187H69.5499C69.5499 116.499 69.4875 116.811 69.3628 117.123L68.1777 120.803H70.9845Z" fill="white"/>
<path d="M85.3905 125.108H82.5837L80.8997 122.301C80.7749 122.113 80.6502 121.926 80.5254 121.739C80.4007 121.552 80.2759 121.427 80.1512 121.303C80.0264 121.178 79.9017 121.115 79.7769 121.053C79.6522 120.991 79.5275 120.928 79.3403 120.928H78.6542V125.045H76.2217V114.254H80.0888C82.7085 114.254 84.0183 115.252 84.0183 117.186C84.0183 117.56 83.9559 117.934 83.8312 118.246C83.7065 118.558 83.5817 118.87 83.3322 119.119C83.1451 119.369 82.8956 119.618 82.5837 119.805C82.2719 119.993 81.96 120.117 81.5858 120.242C81.7729 120.304 81.8976 120.367 82.0224 120.492C82.1471 120.616 82.3342 120.741 82.459 120.866C82.5837 120.991 82.7085 121.178 82.8332 121.365C82.958 121.552 83.0827 121.739 83.2075 121.864L85.3905 125.108ZM78.7166 116.063V119.057H79.7769C80.2759 119.057 80.7125 118.932 81.0244 118.62C81.3363 118.308 81.5234 117.934 81.5234 117.498C81.5234 116.562 80.962 116.063 79.8393 116.063H78.7166Z" fill="white"/>
<path d="M93.9963 116.25H90.94V125.108H88.5075V116.25H85.4512V114.254H94.0587V116.25H93.9963Z" fill="white"/>
<path d="M105.164 125.107H102.731L98.3029 118.308C98.0534 117.934 97.8663 117.622 97.7415 117.435C97.8039 117.809 97.8039 118.37 97.8039 119.181V125.107H95.4961V114.316H98.1158L102.42 120.928C102.607 121.24 102.794 121.489 102.981 121.801C102.918 121.552 102.918 121.053 102.918 120.304V114.316H105.226V125.107H105.164Z" fill="white"/>
<path d="M114.144 125.107H107.657V114.316H113.895V116.312H110.09V118.745H113.645V120.741H110.09V123.236H114.144V125.107Z" fill="white"/>
<path d="M124.936 125.108H122.13L120.446 122.301C120.321 122.113 120.196 121.926 120.071 121.739C119.947 121.552 119.822 121.427 119.697 121.303C119.572 121.178 119.448 121.115 119.323 121.053C119.198 120.991 119.073 120.928 118.886 120.928H118.2V125.045H115.768V114.254H119.635C122.254 114.254 123.564 115.252 123.564 117.186C123.564 117.56 123.502 117.934 123.377 118.246C123.252 118.558 123.128 118.87 122.878 119.119C122.691 119.369 122.442 119.618 122.13 119.805C121.818 119.993 121.506 120.117 121.132 120.242C121.319 120.304 121.444 120.367 121.631 120.492C121.818 120.616 121.943 120.741 122.067 120.866C122.192 120.991 122.317 121.178 122.442 121.365C122.566 121.552 122.691 121.739 122.816 121.864L124.936 125.108ZM118.325 116.063V119.057H119.385C119.884 119.057 120.321 118.932 120.633 118.62C120.945 118.308 121.132 117.934 121.132 117.498C121.132 116.562 120.57 116.063 119.448 116.063H118.325Z" fill="white"/>
<path d="M125.432 124.671V122.238C125.869 122.613 126.368 122.862 126.867 123.049C127.366 123.236 127.927 123.299 128.426 123.299C128.738 123.299 128.988 123.299 129.237 123.236C129.487 123.174 129.674 123.112 129.799 122.987C129.923 122.862 130.048 122.8 130.11 122.613C130.173 122.488 130.235 122.363 130.235 122.176C130.235 121.989 130.173 121.802 130.048 121.615C129.923 121.428 129.736 121.303 129.549 121.178C129.362 121.053 129.113 120.928 128.801 120.741C128.489 120.617 128.177 120.492 127.865 120.367C126.992 119.993 126.368 119.556 125.994 119.057C125.557 118.558 125.37 117.934 125.37 117.186C125.37 116.624 125.495 116.125 125.682 115.751C125.931 115.377 126.243 115.003 126.618 114.753C126.992 114.504 127.428 114.317 127.99 114.192C128.489 114.067 129.05 114.005 129.611 114.005C130.173 114.005 130.672 114.067 131.108 114.129C131.545 114.192 131.919 114.317 132.294 114.441V116.687C132.106 116.562 131.919 116.437 131.732 116.375C131.545 116.25 131.296 116.188 131.046 116.125C130.797 116.063 130.609 116.001 130.36 116.001C130.11 116.001 129.923 115.938 129.736 115.938C129.487 115.938 129.237 115.938 128.988 116.001C128.738 116.063 128.551 116.125 128.426 116.25C128.239 116.375 128.177 116.437 128.052 116.562C127.99 116.687 127.927 116.874 127.927 116.999C127.927 117.186 127.99 117.311 128.052 117.498C128.177 117.623 128.302 117.747 128.489 117.934C128.676 118.059 128.863 118.184 129.113 118.309C129.362 118.433 129.674 118.558 129.986 118.683C130.422 118.87 130.797 119.057 131.171 119.244C131.545 119.431 131.795 119.681 132.044 119.93C132.294 120.18 132.481 120.492 132.605 120.804C132.73 121.116 132.793 121.49 132.793 121.927C132.793 122.55 132.668 123.049 132.418 123.424C132.169 123.86 131.857 124.172 131.483 124.422C131.108 124.671 130.609 124.858 130.11 124.983C129.611 125.108 129.05 125.17 128.489 125.17C127.865 125.17 127.304 125.108 126.805 125.045C126.306 124.983 125.869 124.858 125.432 124.671Z" fill="white"/>
</svg>
