<svg width="158" height="203" viewBox="0 0 158 203" fill="none" xmlns="http://www.w3.org/2000/svg">
<path d="M90.182 121.519L78.8266 132.641L67.4658 121.519" stroke="#3CA6CD" stroke-width="4.73892" stroke-miterlimit="10" stroke-linecap="round" stroke-linejoin="round"/>
<path d="M73.1924 127.127L61.9512 182.979L78.8238 199.993" stroke="#3CA6CD" stroke-width="4.73892" stroke-miterlimit="10" stroke-linecap="round" stroke-linejoin="round"/>
<path d="M84.4589 127.127L95.697 182.979L78.8271 199.993" stroke="#3CA6CD" stroke-width="4.73892" stroke-miterlimit="10" stroke-linecap="round" stroke-linejoin="round"/>
<path d="M109.919 174.295L154.652 165.03L148.738 135.421C147.431 128.893 143.883 122.952 138.737 118.698C135.45 115.994 132.12 114.254 128.934 113.552L103.653 106.211C103.103 106.051 102.582 105.809 102.109 105.489C100.777 104.593 99.9024 103.157 99.7153 101.561L98.5488 91.5564C105.632 86.0599 110.865 77.8443 113.378 68.2478C117.892 67.8489 121.36 62.8283 121.36 56.4939C121.36 50.6387 118.42 45.9065 114.391 44.8967" stroke="#3CA6CD" stroke-width="4.73892" stroke-miterlimit="10" stroke-linecap="round"/>
<path d="M43.0463 44.9624C39.1336 46.076 36.2978 50.7442 36.2978 56.4951C36.2978 62.8232 39.747 67.838 44.2522 68.2491C46.7782 77.8366 52.0137 86.0553 59.0874 91.5577L57.9335 101.563C57.7463 103.158 56.8749 104.595 55.5431 105.491C55.0703 105.81 54.5486 106.052 54.0023 106.212L28.8036 113.528C25.5379 114.246 22.2024 115.992 18.9214 118.699C13.7567 122.965 10.2058 128.903 8.91659 135.422L3 165.031L43.0311 173.32" stroke="#3CA6CD" stroke-width="4.73892" stroke-miterlimit="10" stroke-linecap="round"/>
<path d="M114.389 44.8971C114.389 44.8971 116.479 3 78.8204 3C41.1616 3 43.0459 44.9615 43.0459 44.9615" stroke="#3CA6CD" stroke-width="4.73892" stroke-miterlimit="10" stroke-linecap="round"/>
<path d="M45.7285 26.9599C47.1955 23.9522 50.0617 21.6443 53.2043 20.4997C58.3081 18.6459 64.0255 20.1285 68.9663 22.384C76.0987 25.6403 82.3283 29.4702 90.3262 30.351C97.9462 31.1919 104.928 30.3448 111.775 26.8556" stroke="#3CA6CD" stroke-width="4.73892" stroke-miterlimit="10" stroke-linecap="round"/>
<path d="M70.0911 56.2558H54.2404C53.1232 56.2558 52.2178 55.3504 52.2178 54.2301V45.5327C52.2178 44.4159 53.1232 43.5105 54.2404 43.5105H70.0911C71.2114 43.5105 72.1169 44.4159 72.1169 45.5327V54.2301C72.1169 55.3504 71.2114 56.2558 70.0911 56.2558Z" stroke="#3CA6CD" stroke-width="4.73892" stroke-miterlimit="10" stroke-linecap="round"/>
<path d="M103.404 56.2558H87.5525C86.4353 56.2558 85.5303 55.3504 85.5303 54.2301V45.5327C85.5303 44.4159 86.4353 43.5105 87.5525 43.5105H103.404C104.52 43.5105 105.426 44.4159 105.426 45.5327V54.2301C105.426 55.3504 104.52 56.2558 103.404 56.2558Z" stroke="#3CA6CD" stroke-width="4.73892" stroke-miterlimit="10" stroke-linecap="round"/>
<path d="M72.1143 48.1963H85.5286" stroke="#3CA6CD" stroke-width="4.73892" stroke-miterlimit="10" stroke-linecap="round"/>
<path d="M43.0303 43.5105L52.2153 47.6104" stroke="#3CA6CD" stroke-width="4.73892" stroke-miterlimit="10" stroke-linecap="round"/>
<path d="M105.423 47.6104L114.409 43.5105" stroke="#3CA6CD" stroke-width="4.73892" stroke-miterlimit="10" stroke-linecap="round"/>
<path d="M99.4474 99.2214L78.8269 117.687L58.2041 99.2214" stroke="#3CA6CD" stroke-width="4.73892" stroke-miterlimit="10" stroke-linecap="round" stroke-linejoin="round"/>
<path d="M111.764 148.855L135.103 144.464" stroke="#3CA6CD" stroke-width="4.73892" stroke-miterlimit="10" stroke-linecap="round" stroke-linejoin="round"/>
</svg>
