<svg width="199" height="200" viewBox="0 0 199 200" fill="none" xmlns="http://www.w3.org/2000/svg">
<path d="M68.9788 41.8909C68.9788 48.8525 63.3356 54.4943 56.3763 54.4943C49.4151 54.4943 43.7725 48.8525 43.7725 41.8909C43.7725 34.9325 49.4151 29.2908 56.3763 29.2908C63.3356 29.2908 68.9788 34.9325 68.9788 41.8909Z" stroke="#3CA6CD" stroke-width="5.00682" stroke-miterlimit="10"/>
<path d="M56.376 65.4062V87.0492" stroke="#3CA6CD" stroke-width="5.00682" stroke-miterlimit="10"/>
<path d="M36.2002 91.0295V121.203H76.5595V91.0295" stroke="#3CA6CD" stroke-width="5.00682" stroke-miterlimit="10"/>
<path d="M20.0947 121.202V82.2118C20.0947 72.9286 25.0571 65.4062 34.3374 65.4062H78.4214" stroke="#3CA6CD" stroke-width="5.00682" stroke-miterlimit="10"/>
<path d="M78.4189 65.4062C87.6993 65.4062 92.6602 72.9286 92.6602 82.2118V121.202" stroke="#3CA6CD" stroke-width="5.00682" stroke-miterlimit="10"/>
<path d="M30.2897 156.687H20.0915L11.7247 136.185C11.271 135.073 12.0881 133.86 13.2874 133.86H99.4651C100.664 133.86 101.48 135.073 101.027 136.185L92.6595 156.687H82.4637" stroke="#3CA6CD" stroke-width="5.00682" stroke-miterlimit="10"/>
<path d="M82.465 199.544V148.514C82.465 147.882 81.9517 147.37 81.3197 147.37H31.4359C30.8039 147.37 30.291 147.882 30.291 148.514V199.544" stroke="#3CA6CD" stroke-width="5.00682" stroke-miterlimit="10"/>
<path d="M11.5977 54.4933V15.9341H187.375V118.577H109.499" stroke="#3CA6CD" stroke-width="5.00682" stroke-miterlimit="10" stroke-linecap="round"/>
<path d="M189.51 15.9336H9.46728C5.89537 15.9336 3 13.0383 3 9.4654C3 5.89538 5.89537 3 9.46728 3H189.51C193.082 3 195.977 5.89538 195.977 9.4654C195.977 13.0383 193.082 15.9336 189.51 15.9336Z" stroke="#3CA6CD" stroke-width="5.00682" stroke-miterlimit="10" stroke-linecap="round"/>
<path d="M81 33.5H172.5M115.5 59H172.5M115.5 73.5H172.5M115.5 87H172.5" stroke="#3CA6CD" stroke-width="5.00682" stroke-miterlimit="10" stroke-linecap="round"/>
</svg>
