<svg width="258" height="203" viewBox="0 0 258 203" fill="none" xmlns="http://www.w3.org/2000/svg">
<path d="M80.1743 110.451C80.1743 107.963 83.8469 68.5575 83.8469 68.5575L110.391 51.1858" stroke="#3CA6CD" stroke-width="5.82897" stroke-miterlimit="10" stroke-linejoin="round"/>
<path d="M124.913 89.4824L118.568 110.452" stroke="#3CA6CD" stroke-width="5.82897" stroke-miterlimit="10" stroke-linecap="round" stroke-linejoin="round"/>
<path d="M176.999 110.451C176.999 107.963 173.326 68.5575 173.326 68.5575L146.785 51.1858" stroke="#3CA6CD" stroke-width="5.82897" stroke-miterlimit="10" stroke-linejoin="round"/>
<path d="M146.785 51.1858L118.369 77.4361L124.914 89.4813H132.26L138.806 77.4361L110.392 51.1858" stroke="#3CA6CD" stroke-width="5.82897" stroke-miterlimit="10" stroke-linecap="round" stroke-linejoin="round"/>
<path d="M132.262 89.4824L138.608 110.452" stroke="#3CA6CD" stroke-width="5.82897" stroke-miterlimit="10" stroke-linecap="round" stroke-linejoin="round"/>
<path d="M146.785 94.8264H160.975" stroke="#3CA6CD" stroke-width="5.82897" stroke-miterlimit="10" stroke-linecap="round" stroke-linejoin="round"/>
<path d="M145.639 23.9245C145.639 12.3657 138.007 3 128.588 3C119.17 3 111.538 12.3657 111.538 23.9245C111.538 35.4866 119.17 44.8522 128.588 44.8522C138.007 44.8522 145.639 35.4866 145.639 23.9245Z" stroke="#3CA6CD" stroke-width="5.82897" stroke-miterlimit="10" stroke-linecap="round" stroke-linejoin="round"/>
<path d="M172.894 68.9273L190.733 61.4268" stroke="#3CA6CD" stroke-width="5.82897" stroke-miterlimit="10" stroke-linejoin="round"/>
<path d="M202.97 70.0522L190.735 61.4268" stroke="#3CA6CD" stroke-width="5.82897" stroke-miterlimit="10" stroke-linecap="round" stroke-linejoin="round"/>
<path d="M237.267 110.567C237.267 108.876 233.031 68.9273 233.031 68.9273L215.192 61.4268" stroke="#3CA6CD" stroke-width="5.82897" stroke-miterlimit="10" stroke-linejoin="round"/>
<path d="M215.193 61.4268L202.966 70.0522V94.8265" stroke="#3CA6CD" stroke-width="5.82897" stroke-miterlimit="10" stroke-linecap="round" stroke-linejoin="round"/>
<path d="M215.943 36.8653C215.943 28.066 210.134 20.9355 202.966 20.9355C195.797 20.9355 189.987 28.066 189.987 36.8653C189.987 45.6492 195.797 52.8024 202.966 52.8024C210.134 52.8024 215.943 45.6492 215.943 36.8653Z" stroke="#3CA6CD" stroke-width="5.82897" stroke-miterlimit="10" stroke-linecap="round" stroke-linejoin="round"/>
<path d="M84.2765 68.9273L66.4365 61.4268" stroke="#3CA6CD" stroke-width="5.82897" stroke-miterlimit="10" stroke-linejoin="round"/>
<path d="M54.2056 70.0522L66.4358 61.4268" stroke="#3CA6CD" stroke-width="5.82897" stroke-miterlimit="10" stroke-linecap="round" stroke-linejoin="round"/>
<path d="M19.8838 110.567C19.8838 108.876 24.1381 68.9273 24.1381 68.9273L41.9814 61.4268" stroke="#3CA6CD" stroke-width="5.82897" stroke-miterlimit="10" stroke-linejoin="round"/>
<path d="M41.9795 61.4268L54.2063 70.0522V94.8265" stroke="#3CA6CD" stroke-width="5.82897" stroke-miterlimit="10" stroke-linecap="round" stroke-linejoin="round"/>
<path d="M41.2319 36.8653C41.2319 28.066 47.0415 20.9355 54.2062 20.9355C61.3746 20.9355 67.1838 28.066 67.1838 36.8653C67.1838 45.6492 61.3746 52.8024 54.2062 52.8024C47.0415 52.8024 41.2319 45.6492 41.2319 36.8653Z" stroke="#3CA6CD" stroke-width="5.82897" stroke-miterlimit="10" stroke-linecap="round" stroke-linejoin="round"/>
<path d="M232.982 110.47H24.1954C12.4895 110.47 3 119.953 3 131.648V199.715H46.4257V189.844C46.4257 176.629 57.1346 165.923 70.3468 165.923H186.831C200.043 165.923 210.748 176.629 210.748 189.844V199.715H254.174V131.648C254.174 119.953 244.684 110.47 232.982 110.47Z" stroke="#3CA6CD" stroke-width="5.82897" stroke-miterlimit="10"/>
<path d="M69.0454 148.687H188.127" stroke="#3CA6CD" stroke-width="5.82897" stroke-miterlimit="10" stroke-linecap="round"/>
</svg>
