<svg width="27" height="16" viewBox="0 0 27 16" fill="none" xmlns="http://www.w3.org/2000/svg">
<path d="M25.5518 1.53131C25.6924 0.968811 25.5518 0.500061 24.708 0.500061H21.9424C21.2393 0.500061 20.9111 0.875061 20.7236 1.29694C20.7236 1.29694 19.3174 4.71881 17.3486 6.96881C16.6924 7.57819 16.4111 7.81256 16.0361 7.81256C15.8955 7.81256 15.6143 7.57819 15.6143 7.01569V1.53131C15.6143 0.828186 15.4268 0.500061 14.8174 0.500061H10.5049C10.0361 0.500061 9.80176 0.828186 9.80176 1.15631C9.80176 1.81256 10.7861 1.95319 10.8799 3.82819V7.90631C10.8799 8.79694 10.7393 8.98444 10.3643 8.98444C9.42676 8.98444 7.17676 5.51569 5.81738 1.57819C5.53613 0.828186 5.25488 0.500061 4.55176 0.500061H1.78613C1.03613 0.500061 0.848633 0.875061 0.848633 1.29694C0.848633 2.04694 1.78613 5.65631 5.20801 10.4844C7.50488 13.7657 10.7393 15.5001 13.6455 15.5001C15.3799 15.5001 15.6143 15.1251 15.6143 14.4688C15.6143 11.3282 15.4736 11.0001 16.3174 11.0001C16.7393 11.0001 17.4424 11.2344 19.083 12.8282C20.958 14.7032 21.2861 15.5001 22.3174 15.5001H25.083C25.8799 15.5001 26.2549 15.1251 26.0205 14.3282C25.5049 12.7344 21.9893 9.35944 21.8018 9.12506C21.3799 8.60944 21.5205 8.37506 21.8018 7.90631C21.8018 7.90631 25.1768 3.12506 25.5518 1.53131Z" fill="white"/>
</svg>
